<?xml version="1.0" encoding="UTF-8"?>
<svg version="1.1" xmlns="http://www.w3.org/2000/svg" width="512" height="512">
<path d="M0 0 C1.1763715 -0.00282738 2.352743 -0.00565475 3.56476212 -0.00856781 C9.80375635 -0.02347209 16.04272804 -0.03275397 22.28173828 -0.03710938 C27.35863515 -0.04147291 32.43536006 -0.05529479 37.51220703 -0.078125 C65.86382465 -0.20306585 93.88034544 -0.05452738 122.0703125 3.203125 C123.51988581 3.36448501 124.96954035 3.52511655 126.41926575 3.68510437 C127.89321739 3.84857585 129.36715068 4.01221281 130.84106445 4.17602539 C131.84806648 4.28781034 131.84806648 4.28781034 132.87541199 4.40185356 C145.63949931 5.84054097 158.0155601 7.64117853 170.0703125 12.203125 C171.05112793 12.57195801 171.05112793 12.57195801 172.05175781 12.94824219 C188.64103556 19.32012381 202.61435778 28.57913042 215.0703125 41.203125 C215.95332031 42.07582031 216.83632813 42.94851562 217.74609375 43.84765625 C233.50833701 60.19822585 244.16856622 82.56173755 247.6171875 104.9296875 C247.80842445 106.16365265 247.80842445 106.16365265 248.00352478 107.42254639 C249.38234697 116.73175807 250.05947015 126.06504793 250.6328125 135.453125 C250.69312653 136.4170517 250.75344055 137.38097839 250.81558228 138.37411499 C251.20302784 144.61793235 251.56176246 150.8629837 251.9017334 157.10955811 C252.01093214 159.11344591 252.12190287 161.11723826 252.23498535 163.12091064 C252.62685522 170.08382738 252.96473641 177.04784972 253.2578125 184.015625 C253.30259735 185.07021912 253.3473822 186.12481323 253.39352417 187.21136475 C254.06811068 204.14375207 254.08512274 221.04455193 253.93954659 237.98718071 C253.91013198 241.52244854 253.88548989 245.05771914 253.86228943 248.59303284 C253.84620567 250.97177196 253.83001571 253.35051036 253.8137207 255.72924805 C253.80567256 256.91300679 253.79762442 258.09676554 253.78933239 259.31639576 C253.73617397 266.45906257 253.64303197 273.59995321 253.52226734 280.74177837 C253.45378207 285.25705849 253.41822806 289.77220557 253.39036751 294.28790092 C253.36990292 296.41403326 253.33515342 298.54008188 253.28527641 300.66572762 C252.48229119 313.64917463 252.48229119 313.64917463 257.95825195 324.84790039 C259.30677544 325.99293478 260.67531311 327.11519299 262.0703125 328.203125 C281.83805892 352.55207435 286.11034166 384.51103687 283.87988281 414.78808594 C280.80372451 442.9255176 263.91776572 469.70492951 242.4296875 487.56689453 C221.57328425 504.1289741 196.52348902 512.61060975 170.0078125 512.578125 C169.32633148 512.57824585 168.64485046 512.5783667 167.94271851 512.57849121 C153.40272066 512.54184453 140.52418866 510.31272591 126.94140625 504.9375 C120.62270767 503.32128866 114.03637661 504.2144662 107.61384583 504.85394287 C82.76117192 507.29517505 57.84718625 507.36907876 32.90039062 507.33349609 C28.87726922 507.32779935 24.85421392 507.33120243 20.83109474 507.33691978 C-4.95393051 507.36831576 -30.64107461 507.08214049 -56.3046875 504.328125 C-58.03571106 504.14764399 -59.7667497 503.96730745 -61.49780273 503.78710938 C-96.95408369 500.05387959 -128.48333867 493.93831151 -154.9296875 468.203125 C-155.74824219 467.44644531 -156.56679687 466.68976563 -157.41015625 465.91015625 C-175.13901568 449.06086814 -186.7632196 425.84811606 -190.46484375 401.70703125 C-190.58951019 400.90247498 -190.71417664 400.0979187 -190.84262085 399.26898193 C-192.30789492 389.30653111 -193.06526742 379.28116865 -193.81005859 369.24365234 C-194.05341121 365.97029245 -194.3089589 362.69805968 -194.56640625 359.42578125 C-194.73249222 357.26307611 -194.897879 355.10031714 -195.0625 352.9375 C-195.13542267 352.00025085 -195.20834534 351.06300171 -195.28347778 350.09735107 C-196.79419288 329.51761681 -197.09184005 308.95556735 -197.09765625 288.328125 C-197.09908697 286.97216779 -197.10068448 285.61621074 -197.10244179 284.26025391 C-197.1116271 277.14778224 -197.11578608 270.03532897 -197.11499023 262.92285156 C-197.11445961 257.13831797 -197.12147795 251.35385227 -197.13549805 245.56933594 C-197.210882 213.74280908 -197.26110922 181.96475142 -194.9296875 150.203125 C-194.84287405 149.02041047 -194.84287405 149.02041047 -194.75430679 147.81380272 C-191.42293525 102.82846797 -184.80695865 63.36067292 -148.9296875 32.203125 C-123.41494004 11.64169555 -94.67414345 6.51140756 -62.9296875 3.203125 C-61.87168945 3.08984863 -60.81369141 2.97657227 -59.72363281 2.85986328 C-39.80225755 0.74476255 -20.02424503 0.03298192 0 0 Z " fill="#48A4DE" transform="translate(218.9296875,-0.203125)"/>
<path d="M0 0 C1.26521484 0.00974854 2.53042969 0.01949707 3.83398438 0.02954102 C31.10646711 0.54185523 55.1003924 10.77770299 75.8125 28.4375 C76.78316406 29.26121094 77.75382813 30.08492188 78.75390625 30.93359375 C93.69976282 43.93124102 103.34336459 59.42790043 109.6875 78.125 C109.97391357 78.96740234 110.26032715 79.80980469 110.55541992 80.67773438 C119.73477874 109.19034127 116.33019285 141.71851029 102.9296875 168.296875 C87.43003692 197.32356538 62.24461702 216.27628195 31.26171875 226.2109375 C21.1148653 229.15307991 11.29115863 229.82541413 0.75 229.8125 C0.06851898 229.81262085 -0.61296204 229.8127417 -1.31509399 229.81286621 C-12.39584082 229.78493824 -22.56576113 228.68556392 -33.1875 225.4375 C-34.20328125 225.18355469 -35.2190625 224.92960938 -36.265625 224.66796875 C-50.68969696 220.66785043 -64.15561741 211.32560881 -75.1875 201.4375 C-75.93773437 200.8290625 -76.68796875 200.220625 -77.4609375 199.59375 C-93.47376445 186.33400558 -104.11039178 167.07447806 -110.1875 147.4375 C-110.50291748 146.43807373 -110.50291748 146.43807373 -110.82470703 145.41845703 C-119.75635419 115.87966828 -114.10787488 84.36287065 -99.85473633 57.66748047 C-86.15064946 33.14437765 -61.97244329 12.99845969 -34.875 5 C-32.64750598 4.47205891 -30.41814177 3.95197903 -28.1875 3.4375 C-27.12595703 3.17565918 -26.06441406 2.91381836 -24.97070312 2.64404297 C-16.55825585 0.67229818 -8.62934675 -0.07525593 0 0 Z " fill="#2AD252" transform="translate(388.1875,282.5625)"/>
<path d="M0 0 C0.99 0.495 0.99 0.495 2 1 C1.67386719 1.80179687 1.34773437 2.60359375 1.01171875 3.4296875 C-7.97413616 26.80881443 -9.57204806 54.00734197 -2 78 C-1.79101074 78.67530762 -1.58202148 79.35061523 -1.36669922 80.04638672 C3.35120136 94.83620988 10.77191723 108.31076255 21 120 C21.88365234 121.09828125 21.88365234 121.09828125 22.78515625 122.21875 C31.83797576 133.13595059 43.39910962 140.62044286 55.796875 147.22265625 C59 149 59 149 61 151 C57.08068285 151.42078923 53.16019729 151.82855177 49.23852539 152.22680664 C47.28924455 152.4270482 45.34087812 152.63613303 43.39257812 152.84570312 C19.28576009 155.27415408 -4.96710088 155.16481495 -29.16992188 155.13037109 C-33.19304328 155.12467435 -37.21609858 155.12807743 -41.23921776 155.13379478 C-67.02424301 155.16519076 -92.71138711 154.87901549 -118.375 152.125 C-120.10602356 151.94451899 -121.8370622 151.76418245 -123.56811523 151.58398438 C-159.02439619 147.85075459 -190.55365117 141.73518651 -217 116 C-218.22783203 114.86498047 -218.22783203 114.86498047 -219.48046875 113.70703125 C-240.05314477 94.15501513 -253.31718903 64.92207715 -254.06738281 36.44189453 C-254.06989882 34.29448036 -254.03830261 32.14707402 -254 30 C-249.917677 30.60962387 -246.08261627 31.48877929 -242.140625 32.70703125 C-241.03428711 33.04452393 -239.92794922 33.3820166 -238.78808594 33.72973633 C-237.62051758 34.08704834 -236.45294922 34.44436035 -235.25 34.8125 C-208.55955425 42.81288834 -182.72745158 46.60027397 -154.8125 46.4375 C-153.69925354 46.43445862 -152.58600708 46.43141724 -151.43902588 46.42828369 C-134.2797577 46.35912408 -117.82945707 45.56505008 -101 42 C-99.97551758 41.79632813 -98.95103516 41.59265625 -97.89550781 41.3828125 C-63.65847582 34.47786487 -28.34263331 20.7341147 0 0 Z " fill="#4093D1" transform="translate(281,352)"/>
<path d="M0 0 C19.44948996 2.42370567 37.66014193 16.48017757 51 30 C52.32451172 31.30904297 52.32451172 31.30904297 53.67578125 32.64453125 C69.43802451 48.99510085 80.09825372 71.35861255 83.546875 93.7265625 C83.6743663 94.54920593 83.8018576 95.37184937 83.93321228 96.21942139 C85.31205548 105.52877494 85.98795044 114.86189565 86.5625 124.25 C86.62281403 125.20694763 86.68312805 126.16389526 86.74526978 127.14984131 C87.20086935 134.43128159 87.61152896 141.71469118 88 149 C88.05434204 150.01235718 88.10868408 151.02471436 88.16467285 152.06774902 C89.84716103 183.93778549 90.18334148 215.78115068 90.1875 247.6875 C90.18828363 249.04910122 90.18828363 249.04910122 90.1890831 250.43820953 C90.20993949 289.93135996 90.20993949 289.93135996 89 307 C87.7205425 306.04772042 86.44209069 305.09408953 85.1640625 304.13989258 C84.4520166 303.60898514 83.7399707 303.0780777 83.00634766 302.53108215 C80.58145716 300.68060197 78.29704538 298.69363668 76 296.6875 C51.83163693 276.85876013 21.67522963 270.3727331 -9 273 C-15.82593076 274.05255558 -22.48389897 275.6853463 -29.10009766 277.65454102 C-31 278 -31 278 -34 277 C-33.27296875 276.01644531 -32.5459375 275.03289062 -31.796875 274.01953125 C-13.67388173 249.14531208 -0.72642258 222.1285829 9 193 C9.26151855 192.22736816 9.52303711 191.45473633 9.79248047 190.65869141 C29.37597127 131.98976024 23.46592275 66.36297998 3.04980469 8.97485352 C1.99796889 5.99424441 0.9911809 3.00126217 0 0 Z " fill="#4193D1" transform="translate(383,11)"/>
<path d="M0 0 C0.71829638 -0.00438225 1.43659277 -0.00876451 2.17665571 -0.01327956 C4.59005808 -0.02666261 7.00342393 -0.03284537 9.41685486 -0.03897095 C11.14489405 -0.04687249 12.8729316 -0.05514147 14.60096741 -0.06375122 C20.28298873 -0.08997166 25.96501741 -0.10528177 31.64707947 -0.11953735 C33.60418134 -0.12489757 35.56128316 -0.13027508 37.51838493 -0.13566971 C45.66191628 -0.15730103 53.80544564 -0.17603606 61.94899845 -0.1872921 C73.61192036 -0.20351925 85.27450847 -0.2366642 96.93730456 -0.29369295 C105.14127512 -0.3324373 113.34515658 -0.35193028 121.54921621 -0.35721266 C126.44684259 -0.36086078 131.34411295 -0.37282411 136.24164009 -0.4053154 C140.85381451 -0.43547409 145.46541896 -0.44168015 150.07767105 -0.42993164 C151.76506746 -0.42971154 153.4524909 -0.43796398 155.1397953 -0.45558548 C165.18521518 -0.55473404 174.22470234 -0.36565362 181.91139317 6.99732399 C187.63722251 13.24483205 188.44444453 18.16681037 188.29551697 26.6031189 C187.72216957 33.20024272 185.59918044 37.95238745 180.79942322 42.52890015 C171.83561775 49.12387897 161.79572644 48.59562528 151.15122986 48.57382202 C149.45185796 48.5811708 147.75249105 48.58975937 146.0531311 48.5994873 C141.45805328 48.62162468 136.86315518 48.62463797 132.26803136 48.62273979 C128.4237035 48.62261975 124.57941326 48.63119732 120.73509592 48.63951731 C111.66219294 48.65872265 102.58938196 48.66164535 93.51646423 48.65487671 C84.17380882 48.64823487 74.8315481 48.67111263 65.48897272 48.70819044 C57.45046188 48.73892872 49.41207776 48.75024309 41.37350935 48.74635363 C36.57996078 48.74429075 31.78671961 48.7496943 26.99322701 48.77424622 C22.48434263 48.79657978 17.9760986 48.79458094 13.46721077 48.7743187 C11.8185272 48.77092053 10.16979995 48.77594603 8.52117538 48.79030228 C-1.89582299 48.87471122 -10.17956597 48.08994776 -18.45057678 41.09140015 C-18.96620178 40.45202515 -19.48182678 39.81265015 -20.01307678 39.15390015 C-20.81745178 38.19483765 -20.81745178 38.19483765 -21.63807678 37.21640015 C-25.80323787 30.96865851 -25.95449101 24.44774012 -25.01307678 17.15390015 C-22.24937639 9.46177587 -17.16535359 4.84583732 -10.01307678 1.15390015 C-6.49592748 -0.01848295 -3.7136268 0.01604758 0 0 Z " fill="#FDFEFE" transform="translate(204.01307678222656,106.84609985351563)"/>
<path d="M0 0 C4.99523142 2.8457682 8.51424164 7.03280545 10.6875 12.375 C10.98828125 15.1796875 10.98828125 15.1796875 11 18.25 C11.01675781 19.25804687 11.03351563 20.26609375 11.05078125 21.3046875 C10.30581055 27.6008915 6.91658526 31.55680306 2.6875 36.0625 C2.20764648 36.57651367 1.72779297 37.09052734 1.23339844 37.62011719 C-3.01741578 42.14231889 -7.42285661 46.50383146 -11.8359375 50.8671875 C-13.88140403 52.93846434 -15.80464809 55.03324331 -17.6875 57.25 C-20.87379412 60.99043222 -24.32129969 64.42303768 -27.8125 67.875 C-31.26188163 71.28570059 -34.67369923 74.6712151 -37.8125 78.375 C-41.47285182 82.69421514 -45.5160019 86.61024028 -49.54370117 90.58227539 C-52.54651222 93.55813981 -55.41277366 96.56406339 -58.125 99.8125 C-62.98501343 105.51878443 -68.05594111 109.74921918 -75.609375 110.6484375 C-76.41890625 110.68195313 -77.2284375 110.71546875 -78.0625 110.75 C-78.86171875 110.79898438 -79.6609375 110.84796875 -80.484375 110.8984375 C-89.23250924 109.27930768 -95.38950106 101.70289154 -101.3581543 95.6105957 C-102.86845728 94.06917751 -104.3891226 92.53864308 -105.91210938 91.00976562 C-110.72871095 86.1540886 -115.4097207 81.22255331 -119.86157227 76.02661133 C-121.78345508 73.83890524 -123.87254653 71.8611325 -126 69.875 C-131.10466597 64.78775609 -134.3975272 60.21876098 -134.8125 52.875 C-134.45869528 46.24401475 -131.76293552 41.40767985 -126.875 37 C-122.02086183 33.22341893 -117.84800378 31.79453352 -111.68359375 32.02734375 C-99.05398624 33.87913134 -88.11911283 48.69014266 -80.64453125 58.1171875 C-79.25430518 59.71828046 -79.25430518 59.71828046 -76.3125 59.375 C-74.28211639 57.59396174 -72.42764515 55.81640321 -70.5625 53.875 C-70.02101318 53.32255615 -69.47952637 52.7701123 -68.92163086 52.20092773 C-65.57578906 48.76280069 -62.39147105 45.22224111 -59.28515625 41.56640625 C-56.07087326 37.99568792 -52.62919669 34.65005321 -49.19360352 31.29321289 C-46.31797969 28.46322692 -43.57834993 25.57428325 -40.94140625 22.51953125 C-37.05235349 18.02304959 -32.93778105 13.78006082 -28.75 9.5625 C-28.02103516 8.81291016 -27.29207031 8.06332031 -26.54101562 7.29101562 C-18.83071157 -0.47480818 -10.75587071 -4.85945766 0 0 Z " fill="#FDFEFD" transform="translate(447.3125,346.625)"/>
<path d="M0 0 C0.66902344 -0.00671722 1.33804688 -0.01343445 2.02734375 -0.02035522 C4.22956871 -0.0392839 6.4314879 -0.04325716 8.63378906 -0.04541016 C10.17450075 -0.0518431 11.71521124 -0.05857183 13.25592041 -0.06558228 C16.48379342 -0.07754325 19.71155952 -0.08126447 22.93945312 -0.08007812 C27.05615203 -0.07987533 31.17215753 -0.10714097 35.28869247 -0.14162254 C38.47165004 -0.16397084 41.65444305 -0.16791321 44.83747101 -0.16685867 C46.35398999 -0.16920412 47.87051425 -0.17796757 49.38695526 -0.19352341 C59.03126685 -0.28317123 67.02122879 0.05488119 74.70800781 6.40380859 C80.17543945 12.80331797 82.75714058 18.36848096 82.52441406 26.89208984 C81.45659096 33.72170841 77.72749761 39.92154573 72.15626526 44.00598145 C64.14825318 49.13175215 55.16576099 48.76474871 45.96582031 48.75927734 C44.5004803 48.76639458 43.03514302 48.77409581 41.56980896 48.78234863 C38.51122269 48.79573021 35.45289429 48.79739058 32.39428711 48.79150391 C28.4995502 48.78560833 24.60606008 48.81622122 20.71156406 48.85662079 C17.68895451 48.88262828 14.66664025 48.88536363 11.64393425 48.88172913 C10.20917563 48.88340768 8.77440146 48.89292666 7.3397541 48.91087341 C-2.78388406 49.02361733 -10.41342398 47.89120284 -18.28808594 41.22802734 C-18.80371094 40.58865234 -19.31933594 39.94927734 -19.85058594 39.29052734 C-20.65496094 38.33146484 -20.65496094 38.33146484 -21.47558594 37.35302734 C-25.65246063 31.08771531 -25.67463339 24.60286417 -24.85058594 17.29052734 C-22.64035205 10.35142096 -18.06653999 5.88118262 -11.85058594 2.29052734 C-7.78925969 0.34118761 -4.4878553 0.02838611 0 0 Z " fill="#FDFEFE" transform="translate(203.8505859375,208.70947265625)"/>
<path d="M0 0 C6.25964857 3.51296653 10.46168778 8.07126678 12.6875 14.9375 C13.71816791 23.05400977 13.40658199 29.96581483 8.671875 36.80859375 C3.28291692 42.59005469 -3.19454064 45.5115042 -10.9375 46.3125 C-17.30892212 46.19385154 -22.79178041 43.24003576 -27.43359375 39 C-33.35899148 32.4956133 -34.91509251 27.08481056 -34.74609375 18.296875 C-33.91271954 11.84010184 -30.98731185 7.16650987 -26.015625 3.0234375 C-17.83679192 -2.61621538 -9.30662326 -4.30078802 0 0 Z " fill="#FCFDFE" transform="translate(135.3125,109.0625)"/>
<path d="M0 0 C6.25964857 3.51296653 10.46168778 8.07126678 12.6875 14.9375 C13.73302483 23.17100807 13.33754433 29.95076733 8.54296875 36.875 C4.27177084 41.62277368 -0.98507001 44.64154053 -7.38671875 45.2109375 C-15.09097648 45.42748961 -20.52392745 45.30875685 -26.3125 39.9375 C-31.89080311 34.44674874 -34.58589627 29.68031713 -34.75 21.6875 C-34.62730602 15.30019583 -33.44129415 10.86029303 -29.3125 5.9375 C-20.88939968 -1.94217449 -10.875545 -4.99420797 0 0 Z " fill="#FDFEFE" transform="translate(135.3125,211.0625)"/>
</svg>
